<svg width="70" height="70" viewBox="0 0 70 70" fill="none" xmlns="http://www.w3.org/2000/svg">
<path d="M0 16C0 7.16344 7.16344 0 16 0H54C62.8366 0 70 7.16344 70 16V54C70 62.8366 62.8366 70 54 70H16C7.16344 70 0 62.8366 0 54V16Z" fill="#D9D9D9"/>
<path d="M37.3431 52V36.5162H42.9702L43.8067 30.4538H37.3431V26.5923C37.3431 24.843 37.8681 23.6452 40.5728 23.6452H44V18.2402C42.3325 18.0744 40.6564 17.9943 38.9793 18.0003C34.0055 18.0003 30.5905 20.819 30.5905 25.9935V30.4425H25V36.5049H30.6027V52H37.3431Z" fill="#EC008C"/>
</svg>
