<svg width="46" height="33" viewBox="0 0 46 33" fill="none" xmlns="http://www.w3.org/2000/svg">
<path d="M45.04 5.15494C44.7781 4.15673 44.2647 3.24643 43.5511 2.51512C42.8375 1.78382 41.9488 1.25718 40.9739 0.987898C37.3853 2.00454e-07 23 0 23 0C23 0 8.61473 -2.00454e-07 5.02612 0.982643C4.05077 1.25105 3.1616 1.7774 2.44789 2.50884C1.73417 3.24027 1.22105 4.15104 0.960045 5.14968C-1.95844e-07 8.82803 0 16.5 0 16.5C0 16.5 -1.95844e-07 24.172 0.960045 27.8451C1.48884 29.8734 3.04955 31.4709 5.02612 32.0121C8.61473 33 23 33 23 33C23 33 37.3853 33 40.9739 32.0121C42.9556 31.4709 44.5112 29.8734 45.04 27.8451C46 24.172 46 16.5 46 16.5C46 16.5 46 8.82803 45.04 5.15494ZM18.4308 23.5414V9.4586L30.3415 16.4475L18.4308 23.5414Z" fill="#EC008C"/>
</svg>
