<svg width="70" height="70" viewBox="0 0 70 70" fill="none" xmlns="http://www.w3.org/2000/svg">
<path d="M0 16C0 7.16344 7.16344 0 16 0H54C62.8366 0 70 7.16344 70 16V54C70 62.8366 62.8366 70 54 70H16C7.16344 70 0 62.8366 0 54V16Z" fill="#D9D9D9"/>
<path d="M57.04 24.1549C56.7781 23.1567 56.2647 22.2464 55.5511 21.5151C54.8375 20.7838 53.9488 20.2572 52.9739 19.9879C49.3853 19 35 19 35 19C35 19 20.6147 19 17.0261 19.9826C16.0508 20.2511 15.1616 20.7774 14.4479 21.5088C13.7342 22.2403 13.2211 23.151 12.96 24.1497C12 27.828 12 35.5 12 35.5C12 35.5 12 43.172 12.96 46.8451C13.4888 48.8734 15.0496 50.4709 17.0261 51.0121C20.6147 52 35 52 35 52C35 52 49.3853 52 52.9739 51.0121C54.9556 50.4709 56.5112 48.8734 57.04 46.8451C58 43.172 58 35.5 58 35.5C58 35.5 58 27.828 57.04 24.1549ZM30.4308 42.5414V28.4586L42.3415 35.4475L30.4308 42.5414Z" fill="#EC008C"/>
</svg>
