<svg width="140" height="140" viewBox="0 0 140 140" fill="none" xmlns="http://www.w3.org/2000/svg">
<g filter="url(#filter0_d_57_14)">
<path d="M10 32C10 19.8497 19.8497 10 32 10L108 10C120.15 10 130 19.8497 130 32V108C130 120.15 120.15 130 108 130H32C19.8497 130 10 120.15 10 108L10 32Z" fill="black"/>
<path d="M59.7216 113V72.6463H49V58.117H59.7216V45.7071C59.7216 35.9554 66.0549 27 80.6482 27C86.5568 27 90.9259 27.5637 90.9259 27.5637L90.5817 41.1316C90.5817 41.1316 86.1259 41.0884 81.2635 41.0884C76.0009 41.0884 75.1578 43.502 75.1578 47.508V58.117H91L90.3107 72.6463H75.1578V113H59.7216Z" fill="white"/>
</g>
<defs>
<filter id="filter0_d_57_14" x="0" y="0" width="140" height="140" filterUnits="userSpaceOnUse" color-interpolation-filters="sRGB">
<feFlood flood-opacity="0" result="BackgroundImageFix"/>
<feColorMatrix in="SourceAlpha" type="matrix" values="0 0 0 0 0 0 0 0 0 0 0 0 0 0 0 0 0 0 127 0" result="hardAlpha"/>
<feOffset/>
<feGaussianBlur stdDeviation="5"/>
<feComposite in2="hardAlpha" operator="out"/>
<feColorMatrix type="matrix" values="0 0 0 0 0.966667 0 0 0 0 0.16675 0 0 0 0 0.654835 0 0 0 1 0"/>
<feBlend mode="normal" in2="BackgroundImageFix" result="effect1_dropShadow_57_14"/>
<feBlend mode="normal" in="SourceGraphic" in2="effect1_dropShadow_57_14" result="shape"/>
</filter>
</defs>
</svg>
