<svg width="140" height="140" viewBox="0 0 140 140" fill="none" xmlns="http://www.w3.org/2000/svg">
<g filter="url(#filter0_d_57_15)">
<path d="M10 32C10 19.8497 19.8497 10 32 10L108 10C120.15 10 130 19.8497 130 32V108C130 120.15 120.15 130 108 130H32C19.8497 130 10 120.15 10 108L10 32Z" fill="black"/>
<path fill-rule="evenodd" clip-rule="evenodd" d="M52.2723 27.255C56.8576 27.0464 58.3196 27 70 27C81.6804 27 83.1424 27.0502 87.7238 27.255C92.3053 27.4598 95.4325 28.1823 98.1689 29.2293C101.034 30.2995 103.634 31.9725 105.784 34.1361C107.973 36.2573 109.662 38.8227 110.741 41.6586C111.804 44.3632 112.531 47.4541 112.742 51.9745C112.953 56.5143 113 57.9593 113 69.5C113 81.0445 112.949 82.4895 112.742 87.0216C112.535 91.542 111.804 94.633 110.741 97.3375C109.662 100.174 107.97 102.744 105.784 104.868C103.634 107.031 101.034 108.7 98.1689 109.767C95.4325 110.818 92.3053 111.536 87.7316 111.745C83.1424 111.954 81.6804 112 70 112C58.3196 112 56.8576 111.95 52.2723 111.745C47.6986 111.54 44.5714 110.818 41.835 109.767C38.9654 108.7 36.3655 107.028 34.2162 104.868C32.0286 102.745 30.3357 100.177 29.2555 97.3414C28.1962 94.6368 27.4691 91.5459 27.258 87.0255C27.0469 82.4857 27 81.0407 27 69.5C27 57.9555 27.0508 56.5105 27.258 51.9823C27.4652 47.4541 28.1962 44.3632 29.2555 41.6586C30.3373 38.823 32.0315 36.2546 34.2201 34.1323C36.3663 31.9706 38.9637 30.2974 41.8311 29.2293C44.5675 28.1823 47.6947 27.4636 52.2684 27.255H52.2723ZM87.3759 34.905C82.8414 34.7002 81.481 34.6577 70 34.6577C58.519 34.6577 57.1586 34.7002 52.6241 34.905C48.4296 35.0943 46.1545 35.7859 44.6378 36.3693C42.6325 37.142 41.1978 38.0577 39.6928 39.5452C38.2662 40.917 37.1683 42.587 36.4795 44.4327C35.8893 45.9318 35.1895 48.1805 34.998 52.3261C34.7908 56.808 34.7478 58.1525 34.7478 69.5C34.7478 80.8475 34.7908 82.192 34.998 86.6739C35.1895 90.8195 35.8893 93.0682 36.4795 94.5673C37.1675 96.4102 38.266 98.0832 39.6928 99.4548C41.0805 100.865 42.7732 101.951 44.6378 102.631C46.1545 103.214 48.4296 103.906 52.6241 104.095C57.1586 104.3 58.5151 104.342 70 104.342C81.4849 104.342 82.8414 104.3 87.3759 104.095C91.5704 103.906 93.8455 103.214 95.3622 102.631C97.3676 101.858 98.8022 100.942 100.307 99.4548C101.734 98.0832 102.832 96.4102 103.52 94.5673C104.111 93.0682 104.81 90.8195 105.002 86.6739C105.209 82.192 105.252 80.8475 105.252 69.5C105.252 58.1525 105.209 56.808 105.002 52.3261C104.81 48.1805 104.111 45.9318 103.52 44.4327C102.739 42.4507 101.812 41.0327 100.307 39.5452C98.9192 38.1353 97.2296 37.0501 95.3622 36.3693C93.8455 35.7859 91.5704 35.0943 87.3759 34.905ZM64.5077 82.6016C67.575 83.8636 70.9905 84.0339 74.1707 83.0835C77.351 82.133 80.0987 80.1208 81.9447 77.3905C83.7906 74.6602 84.6202 71.3811 84.2918 68.1134C83.9634 64.8456 82.4974 61.7919 80.1441 59.4739C78.6439 57.9921 76.83 56.8575 74.8329 56.1517C72.8359 55.446 70.7053 55.1866 68.5947 55.3924C66.484 55.5981 64.4458 56.2639 62.6267 57.3416C60.8076 58.4194 59.2529 59.8824 58.0746 61.6253C56.8962 63.3682 56.1235 65.3477 55.812 67.4212C55.5006 69.4947 55.6581 71.6107 56.2734 73.6168C56.8886 75.6229 57.9462 77.4692 59.3701 79.0228C60.7939 80.5764 62.5486 81.7987 64.5077 82.6016ZM54.3715 54.0532C56.4238 52.0247 58.8603 50.4156 61.5419 49.3178C64.2234 48.2199 67.0975 47.6549 70 47.6549C72.9025 47.6549 75.7766 48.2199 78.4581 49.3178C81.1397 50.4156 83.5762 52.0247 85.6285 54.0532C87.6809 56.0817 89.3089 58.4899 90.4197 61.1402C91.5304 63.7906 92.1021 66.6313 92.1021 69.5C92.1021 72.3687 91.5304 75.2094 90.4197 77.8598C89.3089 80.5101 87.6809 82.9183 85.6285 84.9468C81.4836 89.0436 75.8618 91.3451 70 91.3451C64.1382 91.3451 58.5164 89.0436 54.3715 84.9468C50.2265 80.8501 47.8979 75.2937 47.8979 69.5C47.8979 63.7063 50.2265 58.1499 54.3715 54.0532ZM97.004 50.9082C97.5126 50.434 97.9197 49.8638 98.2014 49.2313C98.483 48.5988 98.6334 47.9168 98.6435 47.2259C98.6537 46.5349 98.5236 45.8489 98.2607 45.2086C97.9979 44.5682 97.6077 43.9865 97.1133 43.4979C96.6189 43.0092 96.0304 42.6236 95.3825 42.3638C94.7346 42.104 94.0406 41.9754 93.3415 41.9854C92.6424 41.9955 91.9524 42.1441 91.3125 42.4225C90.6725 42.7008 90.0956 43.1032 89.6158 43.6059C88.6828 44.5835 88.1719 45.8821 88.1917 47.2259C88.2116 48.5697 88.7605 49.8529 89.722 50.8033C90.6835 51.7536 91.9818 52.2961 93.3415 52.3157C94.7011 52.3353 96.0149 51.8304 97.004 50.9082Z" fill="white"/>
</g>
<defs>
<filter id="filter0_d_57_15" x="0" y="0" width="140" height="140" filterUnits="userSpaceOnUse" color-interpolation-filters="sRGB">
<feFlood flood-opacity="0" result="BackgroundImageFix"/>
<feColorMatrix in="SourceAlpha" type="matrix" values="0 0 0 0 0 0 0 0 0 0 0 0 0 0 0 0 0 0 127 0" result="hardAlpha"/>
<feOffset/>
<feGaussianBlur stdDeviation="5"/>
<feComposite in2="hardAlpha" operator="out"/>
<feColorMatrix type="matrix" values="0 0 0 0 0.964706 0 0 0 0 0.168627 0 0 0 0 0.654902 0 0 0 1 0"/>
<feBlend mode="normal" in2="BackgroundImageFix" result="effect1_dropShadow_57_15"/>
<feBlend mode="normal" in="SourceGraphic" in2="effect1_dropShadow_57_15" result="shape"/>
</filter>
</defs>
</svg>
