<?xml version="1.0" encoding="UTF-8"?><svg id="Layer_1" xmlns="http://www.w3.org/2000/svg" xmlns:xlink="http://www.w3.org/1999/xlink" viewBox="0 0 2031.99 2090.31"><defs><style>.cls-1{fill:#ec0090;}.cls-2{fill:url(#linear-gradient);isolation:isolate;opacity:.5;}.cls-3{fill:#c9c9c9;}.cls-4{fill:#f72ba7;}.cls-5{fill:#dadada;}.cls-6{fill:#b6b6b6;}.cls-7{clip-path:url(#clippath);}.cls-8{fill:none;}.cls-9{fill:#b60a73;}.cls-10{fill:#ec008c;}.cls-11{fill:#f62ba7;}</style><clipPath id="clippath"><rect class="cls-8" x="385.4" y="210.78" width="1261.2" height="1668.74" transform="translate(-431.89 877.18) rotate(-39.19)"/></clipPath><linearGradient id="linear-gradient" x1="1078.81" y1="248.78" x2="1067.53" y2="431.38" gradientTransform="translate(0 1401.98) scale(1 -1)" gradientUnits="userSpaceOnUse"><stop offset="0" stop-color="#fff"/><stop offset=".14" stop-color="#f4f4f4"/><stop offset=".38" stop-color="#d6d6d6"/><stop offset=".7" stop-color="#a6a6a6"/><stop offset="1" stop-color="#727272"/></linearGradient></defs><g class="cls-7"><g><path class="cls-5" d="M706.68,930.41l165.64,55.48-202.9-227.6,37.26,172.11Z"/><path class="cls-6" d="M578.09,1052.16l128.59-121.76,165.64,55.48-294.23,66.27Z"/><path class="cls-1" d="M1207.09,827.6l-205.5,169.51-249.98-87.05,455.48-82.46Z"/><path class="cls-4" d="M1001.59,997.11l37.53,259.88,167.97-429.39-205.5,169.51Z"/><path class="cls-9" d="M751.61,910.06l249.98,87.05,37.53,259.88-287.51-346.93Z"/><path class="cls-2" d="M1100.41,964.23l10.94,108.08-64.84,165.75,53.9-273.83Z"/><path class="cls-9" d="M933.85,1160.31l-127.19-4.81-60.67-111.21,187.86,116.02Z"/><path class="cls-10" d="M806.66,1155.5l-70.08,105.36,197.27-100.55-127.19-4.81Z"/><path class="cls-11" d="M745.99,1044.29l60.67,111.21-70.08,105.36,9.41-216.57Z"/><path class="cls-3" d="M1381.77,1086.01l-175.8,18.69-105.56-140.47,281.36,121.78Z"/><path class="cls-5" d="M1205.97,1104.7l-75.3,158.43,251.1-177.12-175.8,18.69Z"/><path class="cls-6" d="M1100.41,964.23l105.56,140.47-75.3,158.43-30.26-298.9Z"/><path class="cls-6" d="M1147.69,1293l-76.84-73.3,52.99,178.25,23.85-104.95Z"/><path class="cls-3" d="M1249.82,1258.56l-102.12,34.44-76.84-73.3,178.96,38.86Z"/><path class="cls-11" d="M819.84,795.91l23.85-104.95,102.11-34.45-125.97,139.4Z"/><path class="cls-9" d="M843.69,690.97l-76.86-73.29,53,178.24,23.85-104.95Z"/><path class="cls-1" d="M945.8,656.51l-102.11,34.45-76.86-73.29,178.97,38.84Z"/><path class="cls-5" d="M1302.98,946.21l11.2-106.95,97.39-46.29-108.59,153.24Z"/><path class="cls-6" d="M1314.18,839.26l-85.1-63.57,73.9,170.52,11.2-106.95Z"/><path class="cls-3" d="M1411.57,792.97l-97.39,46.29-85.1-63.57,182.49,17.28Z"/><path class="cls-11" d="M1454.8,1176.02l-53.57-92.78,52.25-94.25,1.32,187.03Z"/><path class="cls-9" d="M1401.23,1083.23l-106.65-1.52,160.22,94.3-53.57-92.78Z"/><path class="cls-1" d="M1453.48,988.98l-52.25,94.25-106.65-1.52,158.9-92.73Z"/><path class="cls-5" d="M1368.95,1336.03l-4.73-90.58,75.24-51.36-70.51,141.94Z"/><path class="cls-3" d="M1364.22,1245.45l-79.46-41.8,84.19,132.38-4.73-90.58Z"/><path class="cls-6" d="M1439.46,1194.09l-75.24,51.36-79.46-41.8,154.7-9.56Z"/><path class="cls-6" d="M1502.76,1189.62l69.85,27.65,11.88,74.14-81.73-101.79Z"/><path class="cls-3" d="M1572.61,1217.27l59.75-45.22-129.6,17.57,69.85,27.65Z"/><path class="cls-5" d="M1584.49,1291.41l-11.88-74.14,59.75-45.22-47.87,119.36Z"/><path class="cls-3" d="M910.47,772.72l43.43,61.15-30.3,69.04-13.12-130.19Z"/><path class="cls-5" d="M953.9,833.86l74.51-5.88-117.93-55.27,43.43,61.15Z"/><path class="cls-6" d="M923.6,902.91l30.3-69.04,74.51-5.88-104.81,74.92Z"/><path class="cls-3" d="M1111.03,644.49l-5.19,59.66-53.8,26.74,58.98-86.41Z"/><path class="cls-5" d="M1105.84,704.16l48.04,34.58-42.85-94.24-5.19,59.66Z"/><path class="cls-6" d="M1052.05,730.9l53.8-26.74,48.04,34.58-101.84-7.83Z"/></g></g></svg>