<svg width="1189" height="1024" viewBox="0 0 1189 1024" fill="none" xmlns="http://www.w3.org/2000/svg">
<g clip-path="url(#clip0_43_3)">
<path d="M-136.32 741.405L29.3177 796.889L-173.582 569.293L-136.32 741.405Z" fill="#DADADA"/>
<path d="M-264.91 863.163L-136.32 741.405L29.3176 796.889L-264.91 863.163Z" fill="#B6B6B6"/>
<path d="M364.09 638.598L158.592 808.108L-91.3878 721.061L364.09 638.598Z" fill="#EC0090"/>
<path d="M158.592 808.108L196.122 1067.99L364.09 638.598L158.592 808.108Z" fill="#F72BA7"/>
<path d="M-91.3878 721.061L158.592 808.108L196.122 1067.99L-91.3878 721.061Z" fill="#B60A73"/>
<path opacity="0.5" d="M257.408 775.235L268.352 883.318L203.511 1049.07L257.408 775.235Z" fill="url(#paint0_linear_43_3)"/>
<path d="M90.85 971.311L-36.3406 966.501L-97.0075 855.286L90.85 971.311Z" fill="#B60A73"/>
<path d="M-36.3406 966.501L-106.42 1071.86L90.8501 971.311L-36.3406 966.501Z" fill="#EC008C"/>
<path d="M-97.0075 855.286L-36.3406 966.501L-106.42 1071.86L-97.0075 855.286Z" fill="#F62BA7"/>
<path d="M538.766 897.01L362.966 915.7L257.408 775.235L538.766 897.01Z" fill="#C9C9C9"/>
<path d="M362.966 915.7L287.671 1074.13L538.766 897.011L362.966 915.7Z" fill="#DADADA"/>
<path d="M257.408 775.235L362.966 915.7L287.671 1074.13L257.408 775.235Z" fill="#B6B6B6"/>
<path d="M304.694 1104L227.851 1030.7L280.841 1208.95L304.694 1104Z" fill="#B6B6B6"/>
<path d="M406.815 1069.56L304.694 1104L227.851 1030.7L406.815 1069.56Z" fill="#C9C9C9"/>
<path d="M-23.1652 606.913L0.688069 501.966L102.803 467.513L-23.1652 606.913Z" fill="#F62BA7"/>
<path d="M0.688064 501.966L-76.1685 428.676L-23.1652 606.913L0.688064 501.966Z" fill="#B60A73"/>
<path d="M102.803 467.513L0.688063 501.966L-76.1685 428.676L102.803 467.513Z" fill="#EC0090"/>
<path d="M459.979 757.211L471.184 650.264L568.571 603.969L459.979 757.211Z" fill="#DADADA"/>
<path d="M471.184 650.264L386.08 586.693L459.979 757.211L471.184 650.264Z" fill="#B6B6B6"/>
<path d="M568.571 603.969L471.184 650.264L386.08 586.693L568.571 603.969Z" fill="#C9C9C9"/>
<path d="M611.804 987.015L558.234 894.234L610.484 799.984L611.804 987.015Z" fill="#F62BA7"/>
<path d="M558.234 894.234L451.581 892.714L611.804 987.015L558.234 894.234Z" fill="#B60A73"/>
<path d="M610.484 799.984L558.234 894.234L451.581 892.714L610.484 799.984Z" fill="#EC0090"/>
<path d="M525.945 1147.03L521.215 1056.45L596.458 1005.09L525.945 1147.03Z" fill="#DADADA"/>
<path d="M521.215 1056.45L441.758 1014.65L525.945 1147.03L521.215 1056.45Z" fill="#C9C9C9"/>
<path d="M596.458 1005.09L521.215 1056.45L441.758 1014.65L596.458 1005.09Z" fill="#B6B6B6"/>
<path d="M659.762 1000.62L729.611 1028.27L741.492 1102.41L659.762 1000.62Z" fill="#B6B6B6"/>
<path d="M729.611 1028.27L789.361 983.051L659.762 1000.62L729.611 1028.27Z" fill="#C9C9C9"/>
<path d="M741.492 1102.41L729.611 1028.27L789.361 983.052L741.492 1102.41Z" fill="#DADADA"/>
<path d="M67.47 583.716L110.896 644.862L80.5948 713.905L67.47 583.716Z" fill="#C9C9C9"/>
<path d="M110.896 644.862L185.403 638.987L67.47 583.716L110.896 644.862Z" fill="#DADADA"/>
<path d="M80.5948 713.905L110.896 644.862L185.403 638.987L80.5948 713.905Z" fill="#B6B6B6"/>
<path d="M268.03 455.495L262.843 515.16L209.046 541.903L268.03 455.495Z" fill="#C9C9C9"/>
<path d="M262.843 515.16L310.881 549.738L268.03 455.495L262.843 515.16Z" fill="#DADADA"/>
<path d="M209.046 541.903L262.843 515.16L310.881 549.738L209.046 541.903Z" fill="#B6B6B6"/>
</g>
<defs>
<linearGradient id="paint0_linear_43_3" x1="235.822" y1="964.2" x2="224.541" y2="781.604" gradientUnits="userSpaceOnUse">
<stop offset="0.0051" stop-color="white"/>
<stop offset="0.1419" stop-color="#F4F4F4"/>
<stop offset="0.384" stop-color="#D6D6D6"/>
<stop offset="0.7006" stop-color="#A6A6A6"/>
<stop offset="1" stop-color="#727272"/>
</linearGradient>
<clipPath id="clip0_43_3">
<rect width="1668.74" height="1261.2" fill="white" transform="translate(134.457 -189) rotate(50.807)"/>
</clipPath>
</defs>
</svg>
